<svg width="17" height="19" viewBox="0 0 17 19" fill="none" xmlns="http://www.w3.org/2000/svg">
<path d="M4 8L8.5 12L13 8" stroke="#F24B3D" stroke-linecap="round"/>
<path d="M16.0546 4.68397L16.123 4.72302C16.3597 4.8862 16.5 5.15199 16.5 5.43324V13.5668C16.5 13.8745 16.3354 14.1584 16.0607 14.3162C16.0606 14.3163 16.0604 14.3164 16.0603 14.3165L8.94604 18.381C8.94557 18.3813 8.9451 18.3815 8.94463 18.3818C8.80317 18.461 8.65003 18.5 8.5 18.5C8.34775 18.5 8.19228 18.4599 8.05677 18.3826L0.93972 14.3165C0.939579 14.3164 0.939438 14.3163 0.939297 14.3162C0.66516 14.1588 0.5 13.8719 0.5 13.5668V5.43324C0.5 5.12353 0.666166 4.83838 0.937212 4.68496L0.937214 4.68497L0.939045 4.68392L8.05075 0.618992C8.05123 0.618726 8.0517 0.618459 8.05217 0.618194C8.19363 0.539042 8.34676 0.5 8.49679 0.5C8.64785 0.5 8.80027 0.539542 8.9368 0.617405L16.0546 4.68397Z" stroke="#F24B3D"/>
</svg>
