<?xml version="1.0" encoding="utf-8"?>
<!-- Generator: Adobe Illustrator 27.8.1, SVG Export Plug-In . SVG Version: 6.00 Build 0)  -->
<svg version="1.1" id="Layer_1" xmlns="http://www.w3.org/2000/svg" xmlns:xlink="http://www.w3.org/1999/xlink" x="0px" y="0px"
	 viewBox="0 0 114 131" style="enable-background:new 0 0 114 131;" xml:space="preserve">
<style type="text/css">
	.st0{fill:none;stroke:#F2B807;stroke-width:2;}
</style>
<path class="st0" d="M109.1,101.2c2.6-1.5,3.9-4.7,3.9-7.7V37.5c0-2.9-1.5-5.6-3.9-7.1l-0.3-0.2l-47.7-28C59.8,1.4,58.4,1,57,1
	c-1.4,0-2.8,0.4-4.1,1.1c0,0,0,0,0,0l-47.7,28l0,0C2.6,31.7,1,34.4,1,37.5v56.1c0,3,1.6,5.8,4.1,7.3c0,0,0,0,0,0l47.7,28
	c1.3,0.7,2.7,1.1,4.1,1.1c1.4,0,2.8-0.4,4.1-1.1c0,0,0,0,0,0l47.7-27.5L109.1,101.2z"/>
</svg>
