<svg width="80" height="89" viewBox="0 0 80 89" fill="none" xmlns="http://www.w3.org/2000/svg">
<g clip-path="url(#clip0_446_1089)">
<path d="M76.7473 19.7275L43.2375 0.849799C42.239 0.288325 41.1195 0 40 0C38.8805 0 37.761 0.288325 36.7474 0.849799L3.25265 19.7275C1.24054 20.8504 0 22.9446 0 25.2208V62.9762C0 65.2372 1.24054 67.3314 3.25265 68.4695L36.7625 87.3472C37.761 87.9087 38.8956 88.197 40.0151 88.197C41.1346 88.197 42.2542 87.9087 43.2678 87.3472L76.7776 68.4695C78.7897 67.3314 80.0303 65.2524 80.0303 62.9762V25.2208C80.0303 22.9597 78.7897 20.8656 76.7776 19.7275H76.7473ZM77.1104 62.9762C77.1104 64.2357 76.4145 65.4042 75.3101 66.0263L41.8003 84.904C41.2405 85.2227 40.6203 85.3744 40 85.3744C39.3797 85.3744 38.7595 85.2227 38.1997 84.904L4.68986 66.0263C3.57035 65.4042 2.88956 64.2357 2.88956 62.9762V25.2208C2.88956 23.9613 3.58548 22.7928 4.68986 22.1706L38.1846 3.29297C38.7443 2.9743 39.3646 2.82255 39.9849 2.82255C40.6051 2.82255 41.2254 2.9743 41.7852 3.29297L75.2799 22.1706C76.3994 22.7928 77.0802 23.9613 77.0802 25.2208V62.9762H77.1104Z" fill="#F24B3D"/>
<path d="M63.7821 44.0831V31.5334C63.7821 31.0326 63.5098 30.5622 63.0559 30.3194L40.7564 17.7545C40.3177 17.4965 39.7579 17.4965 39.3192 17.7545L17.0196 30.3194C16.5809 30.5774 16.2935 31.0326 16.2935 31.5334V56.6632C16.2935 57.1639 16.5658 57.6192 17.0045 57.8772L28.1543 64.2051C28.593 64.4631 29.1528 64.4631 29.5915 64.2051C30.0453 63.9472 30.3177 63.4919 30.3177 62.9911V38.7112L40.0302 33.1571L48.2904 37.8158L39.304 42.8843C38.8653 43.1423 38.5779 43.5975 38.5779 44.0983V56.6632C38.5779 57.1639 38.8502 57.6344 39.304 57.8772L50.4538 64.1596C50.8925 64.4176 51.4523 64.4176 51.891 64.1596L63.0408 57.862C63.4795 57.604 63.767 57.1488 63.767 56.648C63.767 56.1472 63.4947 55.6768 63.0408 55.434L54.0544 50.3807L63.0408 45.2971C63.4795 45.0391 63.7519 44.5839 63.7519 44.0831H63.7821ZM40.7564 30.3194C40.3025 30.0614 39.7579 30.0614 39.304 30.3194L28.1543 36.6929C27.7155 36.9509 27.4432 37.4061 27.4432 37.9069V60.548L19.183 55.8589V32.3528L40.0453 20.6074L59.4705 31.5486L51.1951 36.2073L40.7715 30.3346L40.7564 30.3194ZM51.18 61.3219L41.4674 55.8589V46.5415L59.4402 56.6632L51.1649 61.3371L51.18 61.3219ZM51.18 48.757L42.9047 44.0983L60.8774 33.9614V43.2637L51.18 48.757Z" fill="#F24B3D"/>
</g>
<defs>
<clipPath id="clip0_446_1089">
<rect width="80" height="88.1818" fill="white"/>
</clipPath>
</defs>
</svg>
